<mxfile host="app.diagrams.net" modified="2021-12-08T03:31:58.384Z" agent="5.0 (Windows NT 10.0; Win64; x64) AppleWebKit/537.36 (KHTML, like Gecko) Chrome/96.0.4664.45 Safari/537.36" etag="U9DnG9pLNqOpfw44bqBC" version="15.9.1" type="github">
  <diagram id="ewhjmNgo8XXMd37SwyQh" name="Page-1">
    <mxGraphModel dx="2360" dy="1538" grid="0" gridSize="10" guides="1" tooltips="1" connect="1" arrows="1" fold="1" page="0" pageScale="1" pageWidth="827" pageHeight="1169" background="#F4F1DE" math="0" shadow="0">
      <root>
        <mxCell id="0" />
        <mxCell id="1" parent="0" />
        <mxCell id="OE3xZeeuRfqUpTDXlx89-3" style="edgeStyle=orthogonalEdgeStyle;rounded=0;orthogonalLoop=1;jettySize=auto;html=1;exitX=1;exitY=0.5;exitDx=0;exitDy=0;entryX=0.053;entryY=0.51;entryDx=0;entryDy=0;entryPerimeter=0;strokeColor=#E07A5F;fontColor=#393C56;labelBackgroundColor=#F4F1DE;shadow=1;" edge="1" parent="1" source="OE3xZeeuRfqUpTDXlx89-1" target="OE3xZeeuRfqUpTDXlx89-2">
          <mxGeometry relative="1" as="geometry" />
        </mxCell>
        <mxCell id="OE3xZeeuRfqUpTDXlx89-1" value="" style="rhombus;whiteSpace=wrap;html=1;fillColor=#F2CC8F;strokeColor=#E07A5F;fontColor=#393C56;shadow=1;" vertex="1" parent="1">
          <mxGeometry x="90" y="220" width="80" height="80" as="geometry" />
        </mxCell>
        <mxCell id="OE3xZeeuRfqUpTDXlx89-2" value="" style="ellipse;shape=cloud;whiteSpace=wrap;html=1;fillColor=#F2CC8F;strokeColor=#E07A5F;fontColor=#393C56;shadow=1;" vertex="1" parent="1">
          <mxGeometry x="320" y="220" width="120" height="80" as="geometry" />
        </mxCell>
        <mxCell id="OE3xZeeuRfqUpTDXlx89-4" value="" style="shape=table;html=1;whiteSpace=wrap;startSize=0;container=1;collapsible=0;childLayout=tableLayout;fillColor=#F2CC8F;fontColor=#393C56;strokeColor=#E07A5F;shadow=1;" vertex="1" parent="1">
          <mxGeometry x="150" y="370" width="240" height="120" as="geometry" />
        </mxCell>
        <mxCell id="OE3xZeeuRfqUpTDXlx89-5" value="" style="shape=partialRectangle;html=1;whiteSpace=wrap;collapsible=0;dropTarget=0;pointerEvents=0;fillColor=none;top=0;left=0;bottom=0;right=0;points=[[0,0.5],[1,0.5]];portConstraint=eastwest;strokeColor=#E07A5F;fontColor=#393C56;shadow=1;" vertex="1" parent="OE3xZeeuRfqUpTDXlx89-4">
          <mxGeometry width="240" height="40" as="geometry" />
        </mxCell>
        <mxCell id="OE3xZeeuRfqUpTDXlx89-28" style="shape=partialRectangle;html=1;whiteSpace=wrap;connectable=0;fillColor=none;top=0;left=0;bottom=0;right=0;overflow=hidden;pointerEvents=1;strokeColor=#E07A5F;fontColor=#393C56;shadow=1;" vertex="1" parent="OE3xZeeuRfqUpTDXlx89-5">
          <mxGeometry width="60" height="40" as="geometry">
            <mxRectangle width="60" height="40" as="alternateBounds" />
          </mxGeometry>
        </mxCell>
        <mxCell id="OE3xZeeuRfqUpTDXlx89-6" value="" style="shape=partialRectangle;html=1;whiteSpace=wrap;connectable=0;fillColor=none;top=0;left=0;bottom=0;right=0;overflow=hidden;pointerEvents=1;strokeColor=#E07A5F;fontColor=#393C56;shadow=1;" vertex="1" parent="OE3xZeeuRfqUpTDXlx89-5">
          <mxGeometry x="60" width="60" height="40" as="geometry">
            <mxRectangle width="60" height="40" as="alternateBounds" />
          </mxGeometry>
        </mxCell>
        <mxCell id="OE3xZeeuRfqUpTDXlx89-7" value="" style="shape=partialRectangle;html=1;whiteSpace=wrap;connectable=0;fillColor=none;top=0;left=0;bottom=0;right=0;overflow=hidden;pointerEvents=1;strokeColor=#E07A5F;fontColor=#393C56;shadow=1;" vertex="1" parent="OE3xZeeuRfqUpTDXlx89-5">
          <mxGeometry x="120" width="60" height="40" as="geometry">
            <mxRectangle width="60" height="40" as="alternateBounds" />
          </mxGeometry>
        </mxCell>
        <mxCell id="OE3xZeeuRfqUpTDXlx89-8" value="" style="shape=partialRectangle;html=1;whiteSpace=wrap;connectable=0;fillColor=none;top=0;left=0;bottom=0;right=0;overflow=hidden;pointerEvents=1;strokeColor=#E07A5F;fontColor=#393C56;shadow=1;" vertex="1" parent="OE3xZeeuRfqUpTDXlx89-5">
          <mxGeometry x="180" width="60" height="40" as="geometry">
            <mxRectangle width="60" height="40" as="alternateBounds" />
          </mxGeometry>
        </mxCell>
        <mxCell id="OE3xZeeuRfqUpTDXlx89-9" value="" style="shape=partialRectangle;html=1;whiteSpace=wrap;collapsible=0;dropTarget=0;pointerEvents=0;fillColor=none;top=0;left=0;bottom=0;right=0;points=[[0,0.5],[1,0.5]];portConstraint=eastwest;strokeColor=#E07A5F;fontColor=#393C56;shadow=1;" vertex="1" parent="OE3xZeeuRfqUpTDXlx89-4">
          <mxGeometry y="40" width="240" height="40" as="geometry" />
        </mxCell>
        <mxCell id="OE3xZeeuRfqUpTDXlx89-29" style="shape=partialRectangle;html=1;whiteSpace=wrap;connectable=0;fillColor=none;top=0;left=0;bottom=0;right=0;overflow=hidden;pointerEvents=1;strokeColor=#E07A5F;fontColor=#393C56;shadow=1;" vertex="1" parent="OE3xZeeuRfqUpTDXlx89-9">
          <mxGeometry width="60" height="40" as="geometry">
            <mxRectangle width="60" height="40" as="alternateBounds" />
          </mxGeometry>
        </mxCell>
        <mxCell id="OE3xZeeuRfqUpTDXlx89-10" value="" style="shape=partialRectangle;html=1;whiteSpace=wrap;connectable=0;fillColor=none;top=0;left=0;bottom=0;right=0;overflow=hidden;pointerEvents=1;strokeColor=#E07A5F;fontColor=#393C56;shadow=1;" vertex="1" parent="OE3xZeeuRfqUpTDXlx89-9">
          <mxGeometry x="60" width="60" height="40" as="geometry">
            <mxRectangle width="60" height="40" as="alternateBounds" />
          </mxGeometry>
        </mxCell>
        <mxCell id="OE3xZeeuRfqUpTDXlx89-11" value="" style="shape=partialRectangle;html=1;whiteSpace=wrap;connectable=0;fillColor=none;top=0;left=0;bottom=0;right=0;overflow=hidden;pointerEvents=1;strokeColor=#E07A5F;fontColor=#393C56;shadow=1;" vertex="1" parent="OE3xZeeuRfqUpTDXlx89-9">
          <mxGeometry x="120" width="60" height="40" as="geometry">
            <mxRectangle width="60" height="40" as="alternateBounds" />
          </mxGeometry>
        </mxCell>
        <mxCell id="OE3xZeeuRfqUpTDXlx89-12" value="" style="shape=partialRectangle;html=1;whiteSpace=wrap;connectable=0;fillColor=none;top=0;left=0;bottom=0;right=0;overflow=hidden;pointerEvents=1;strokeColor=#E07A5F;fontColor=#393C56;shadow=1;" vertex="1" parent="OE3xZeeuRfqUpTDXlx89-9">
          <mxGeometry x="180" width="60" height="40" as="geometry">
            <mxRectangle width="60" height="40" as="alternateBounds" />
          </mxGeometry>
        </mxCell>
        <mxCell id="OE3xZeeuRfqUpTDXlx89-13" value="" style="shape=partialRectangle;html=1;whiteSpace=wrap;collapsible=0;dropTarget=0;pointerEvents=0;fillColor=none;top=0;left=0;bottom=0;right=0;points=[[0,0.5],[1,0.5]];portConstraint=eastwest;strokeColor=#E07A5F;fontColor=#393C56;shadow=1;" vertex="1" parent="OE3xZeeuRfqUpTDXlx89-4">
          <mxGeometry y="80" width="240" height="40" as="geometry" />
        </mxCell>
        <mxCell id="OE3xZeeuRfqUpTDXlx89-30" style="shape=partialRectangle;html=1;whiteSpace=wrap;connectable=0;fillColor=none;top=0;left=0;bottom=0;right=0;overflow=hidden;pointerEvents=1;strokeColor=#E07A5F;fontColor=#393C56;shadow=1;" vertex="1" parent="OE3xZeeuRfqUpTDXlx89-13">
          <mxGeometry width="60" height="40" as="geometry">
            <mxRectangle width="60" height="40" as="alternateBounds" />
          </mxGeometry>
        </mxCell>
        <mxCell id="OE3xZeeuRfqUpTDXlx89-14" value="" style="shape=partialRectangle;html=1;whiteSpace=wrap;connectable=0;fillColor=none;top=0;left=0;bottom=0;right=0;overflow=hidden;pointerEvents=1;strokeColor=#E07A5F;fontColor=#393C56;shadow=1;" vertex="1" parent="OE3xZeeuRfqUpTDXlx89-13">
          <mxGeometry x="60" width="60" height="40" as="geometry">
            <mxRectangle width="60" height="40" as="alternateBounds" />
          </mxGeometry>
        </mxCell>
        <mxCell id="OE3xZeeuRfqUpTDXlx89-15" value="" style="shape=partialRectangle;html=1;whiteSpace=wrap;connectable=0;fillColor=none;top=0;left=0;bottom=0;right=0;overflow=hidden;pointerEvents=1;strokeColor=#E07A5F;fontColor=#393C56;shadow=1;" vertex="1" parent="OE3xZeeuRfqUpTDXlx89-13">
          <mxGeometry x="120" width="60" height="40" as="geometry">
            <mxRectangle width="60" height="40" as="alternateBounds" />
          </mxGeometry>
        </mxCell>
        <mxCell id="OE3xZeeuRfqUpTDXlx89-16" value="" style="shape=partialRectangle;html=1;whiteSpace=wrap;connectable=0;fillColor=none;top=0;left=0;bottom=0;right=0;overflow=hidden;pointerEvents=1;strokeColor=#E07A5F;fontColor=#393C56;shadow=1;" vertex="1" parent="OE3xZeeuRfqUpTDXlx89-13">
          <mxGeometry x="180" width="60" height="40" as="geometry">
            <mxRectangle width="60" height="40" as="alternateBounds" />
          </mxGeometry>
        </mxCell>
        <mxCell id="OE3xZeeuRfqUpTDXlx89-19" value="" style="edgeStyle=orthogonalEdgeStyle;rounded=0;orthogonalLoop=1;jettySize=auto;html=1;strokeColor=#E07A5F;fontColor=#393C56;labelBackgroundColor=#F4F1DE;" edge="1" parent="1" source="OE3xZeeuRfqUpTDXlx89-17" target="OE3xZeeuRfqUpTDXlx89-18">
          <mxGeometry relative="1" as="geometry" />
        </mxCell>
        <mxCell id="OE3xZeeuRfqUpTDXlx89-17" value="&lt;table border=&quot;0&quot; width=&quot;100%&quot; height=&quot;100%&quot; style=&quot;width:100%;height:100%;border-collapse:collapse;&quot;&gt;&lt;tr&gt;&lt;td align=&quot;center&quot;&gt;Value 1&lt;/td&gt;&lt;td align=&quot;center&quot;&gt;Value 2&lt;/td&gt;&lt;td align=&quot;center&quot;&gt;Value 3&lt;/td&gt;&lt;/tr&gt;&lt;tr&gt;&lt;td align=&quot;center&quot;&gt;Value 4&lt;/td&gt;&lt;td align=&quot;center&quot;&gt;Value 5&lt;/td&gt;&lt;td align=&quot;center&quot;&gt;Value 6&lt;/td&gt;&lt;/tr&gt;&lt;tr&gt;&lt;td align=&quot;center&quot;&gt;Value 7&lt;/td&gt;&lt;td align=&quot;center&quot;&gt;Value 8&lt;/td&gt;&lt;td align=&quot;center&quot;&gt;Value 9&lt;/td&gt;&lt;/tr&gt;&lt;/table&gt;" style="text;html=1;strokeColor=#E07A5F;fillColor=#F2CC8F;overflow=fill;fontColor=#393C56;" vertex="1" parent="1">
          <mxGeometry x="420" y="510" width="230" height="160" as="geometry" />
        </mxCell>
        <mxCell id="OE3xZeeuRfqUpTDXlx89-18" value="" style="whiteSpace=wrap;html=1;align=left;verticalAlign=top;strokeColor=#E07A5F;fillColor=none;fontColor=#393C56;" vertex="1" parent="1">
          <mxGeometry x="475" y="800" width="120" height="60" as="geometry" />
        </mxCell>
        <mxCell id="OE3xZeeuRfqUpTDXlx89-20" value="" style="ellipse;whiteSpace=wrap;html=1;strokeWidth=2;fillWeight=2;hachureGap=8;fillColor=#F2CC8F;fillStyle=dots;sketch=1;strokeColor=#E07A5F;fontColor=#393C56;" vertex="1" parent="1">
          <mxGeometry x="140" y="590" width="160" height="100" as="geometry" />
        </mxCell>
        <mxCell id="OE3xZeeuRfqUpTDXlx89-22" value="" style="verticalLabelPosition=bottom;verticalAlign=top;html=1;shape=mxgraph.basic.smiley;fillColor=#F2CC8F;strokeColor=#E07A5F;fontColor=#393C56;" vertex="1" parent="1">
          <mxGeometry x="110" y="800" width="50" height="50" as="geometry" />
        </mxCell>
        <mxCell id="OE3xZeeuRfqUpTDXlx89-23" value="" style="shape=message;html=1;whiteSpace=wrap;html=1;outlineConnect=0;fillColor=#F2CC8F;strokeColor=#E07A5F;fontColor=#393C56;" vertex="1" parent="1">
          <mxGeometry x="300" y="790" width="80" height="50" as="geometry" />
        </mxCell>
        <mxCell id="OE3xZeeuRfqUpTDXlx89-24" value="" style="verticalLabelPosition=bottom;verticalAlign=top;html=1;shape=mxgraph.flowchart.sort;fillColor=#F2CC8F;strokeColor=#E07A5F;fontColor=#393C56;" vertex="1" parent="1">
          <mxGeometry x="660" y="670" width="100" height="100" as="geometry" />
        </mxCell>
        <mxCell id="OE3xZeeuRfqUpTDXlx89-25" value="" style="verticalLabelPosition=bottom;verticalAlign=top;html=1;shape=mxgraph.flowchart.or;fillColor=#F2CC8F;strokeColor=#E07A5F;fontColor=#393C56;" vertex="1" parent="1">
          <mxGeometry x="40" y="690" width="90" height="80" as="geometry" />
        </mxCell>
        <mxCell id="OE3xZeeuRfqUpTDXlx89-26" value="" style="edgeStyle=entityRelationEdgeStyle;fontSize=12;html=1;endArrow=ERmany;startArrow=ERmany;rounded=0;strokeColor=#E07A5F;fontColor=#393C56;labelBackgroundColor=#F4F1DE;" edge="1" parent="1">
          <mxGeometry width="100" height="100" relative="1" as="geometry">
            <mxPoint x="380" y="960" as="sourcePoint" />
            <mxPoint x="480" y="860" as="targetPoint" />
          </mxGeometry>
        </mxCell>
        <mxCell id="OE3xZeeuRfqUpTDXlx89-27" value="&lt;p style=&quot;margin:0px;margin-top:4px;text-align:center;&quot;&gt;&lt;i&gt;&amp;lt;&amp;lt;Interface&amp;gt;&amp;gt;&lt;/i&gt;&lt;br/&gt;&lt;b&gt;Interface&lt;/b&gt;&lt;/p&gt;&lt;hr size=&quot;1&quot;/&gt;&lt;p style=&quot;margin:0px;margin-left:4px;&quot;&gt;+ field1: Type&lt;br/&gt;+ field2: Type&lt;/p&gt;&lt;hr size=&quot;1&quot;/&gt;&lt;p style=&quot;margin:0px;margin-left:4px;&quot;&gt;+ method1(Type): Type&lt;br/&gt;+ method2(Type, Type): Type&lt;/p&gt;" style="verticalAlign=top;align=left;overflow=fill;fontSize=12;fontFamily=Helvetica;html=1;fillColor=#F2CC8F;strokeColor=#E07A5F;fontColor=#393C56;" vertex="1" parent="1">
          <mxGeometry x="160" y="860" width="190" height="140" as="geometry" />
        </mxCell>
        <mxCell id="OE3xZeeuRfqUpTDXlx89-31" value="" style="ellipse;html=1;shape=endState;fillColor=#F2CC8F;strokeColor=#E07A5F;rounded=0;sketch=0;fontColor=#393C56;" vertex="1" parent="1">
          <mxGeometry x="773" y="560" width="30" height="30" as="geometry" />
        </mxCell>
        <mxCell id="OE3xZeeuRfqUpTDXlx89-32" value="" style="shape=umlLifeline;participant=umlBoundary;perimeter=lifelinePerimeter;whiteSpace=wrap;html=1;container=1;collapsible=0;recursiveResize=0;verticalAlign=top;spacingTop=36;outlineConnect=0;rounded=0;sketch=0;fontColor=#393C56;strokeColor=#E07A5F;fillColor=#F2CC8F;" vertex="1" parent="1">
          <mxGeometry x="388" y="557" width="50" height="300" as="geometry" />
        </mxCell>
        <mxCell id="OE3xZeeuRfqUpTDXlx89-33" value="" style="html=1;shadow=0;dashed=0;align=center;verticalAlign=middle;shape=mxgraph.arrows2.quadArrow;dy=10;dx=20;notch=24;arrowHead=10;rounded=0;sketch=0;fontColor=#393C56;strokeColor=#E07A5F;fillColor=#F2CC8F;" vertex="1" parent="1">
          <mxGeometry x="634" y="843" width="100" height="100" as="geometry" />
        </mxCell>
        <mxCell id="OE3xZeeuRfqUpTDXlx89-36" value="" style="whiteSpace=wrap;html=1;shape=mxgraph.basic.loud_callout;rounded=0;sketch=0;fontColor=#393C56;strokeColor=#E07A5F;fillColor=#F2CC8F;" vertex="1" parent="1">
          <mxGeometry x="538" y="-209" width="235" height="111" as="geometry" />
        </mxCell>
        <mxCell id="OE3xZeeuRfqUpTDXlx89-44" value="Actor" style="shape=umlActor;verticalLabelPosition=bottom;verticalAlign=top;html=1;outlineConnect=0;rounded=0;sketch=0;fontColor=#393C56;strokeColor=#E07A5F;fillColor=#F2CC8F;" vertex="1" parent="1">
          <mxGeometry x="2" y="860" width="30" height="60" as="geometry" />
        </mxCell>
        <mxCell id="OE3xZeeuRfqUpTDXlx89-21" value="" style="verticalLabelPosition=bottom;verticalAlign=top;html=1;shape=mxgraph.basic.patternFillRect;fillStyle=diag;step=5;fillStrokeWidth=0.2;fillStrokeColor=#dddddd;fillColor=#F2CC8F;strokeColor=#E07A5F;fontColor=#393C56;shadow=1;" vertex="1" parent="1">
          <mxGeometry x="450" y="410" width="120" height="60" as="geometry" />
        </mxCell>
        <mxCell id="OE3xZeeuRfqUpTDXlx89-34" value="" style="html=1;shadow=1;dashed=0;align=center;verticalAlign=middle;shape=mxgraph.arrows2.arrow;dy=0.6;dx=40;notch=15;rounded=0;sketch=0;fontColor=#393C56;strokeColor=#E07A5F;fillColor=#F2CC8F;" vertex="1" parent="1">
          <mxGeometry x="85" y="-70" width="100" height="70" as="geometry" />
        </mxCell>
        <mxCell id="OE3xZeeuRfqUpTDXlx89-35" value="" style="verticalLabelPosition=bottom;verticalAlign=top;html=1;shape=mxgraph.basic.sun;rounded=0;sketch=0;fontColor=#393C56;strokeColor=#E07A5F;fillColor=#F2CC8F;shadow=1;" vertex="1" parent="1">
          <mxGeometry x="282" y="-138" width="100" height="100" as="geometry" />
        </mxCell>
        <mxCell id="OE3xZeeuRfqUpTDXlx89-37" value="" style="verticalLabelPosition=bottom;verticalAlign=top;html=1;shape=mxgraph.basic.4_point_star_2;dx=0.8;rounded=0;sketch=0;fontColor=#393C56;strokeColor=#E07A5F;fillColor=#F2CC8F;shadow=1;" vertex="1" parent="1">
          <mxGeometry x="250" y="15" width="100" height="100" as="geometry" />
        </mxCell>
        <mxCell id="OE3xZeeuRfqUpTDXlx89-39" value="" style="rhombus;whiteSpace=wrap;html=1;strokeWidth=2;fillWeight=-1;hachureGap=8;fillStyle=cross-hatch;fillColor=#F2CC8F;sketch=1;rounded=0;fontColor=#393C56;strokeColor=#E07A5F;shadow=1;" vertex="1" parent="1">
          <mxGeometry x="530" y="43" width="118" height="49" as="geometry" />
        </mxCell>
        <mxCell id="OE3xZeeuRfqUpTDXlx89-40" value="" style="rounded=1;whiteSpace=wrap;html=1;strokeWidth=2;fillWeight=4;hachureGap=8;hachureAngle=45;fillColor=#F2CC8F;sketch=1;fontColor=#393C56;strokeColor=#E07A5F;shadow=1;" vertex="1" parent="1">
          <mxGeometry x="17" y="39" width="152" height="82" as="geometry" />
        </mxCell>
        <mxCell id="OE3xZeeuRfqUpTDXlx89-41" value="&lt;h1&gt;Heading&lt;/h1&gt;&lt;p&gt;Lorem ipsum dolor sit amet, consectetur adipisicing elit, sed do eiusmod tempor incididunt ut labore et dolore magna aliqua.&lt;/p&gt;" style="text;html=1;strokeColor=none;fillColor=none;spacing=5;spacingTop=-20;whiteSpace=wrap;overflow=hidden;rounded=0;sketch=0;fontColor=#393C56;shadow=1;" vertex="1" parent="1">
          <mxGeometry x="482" y="118" width="190" height="120" as="geometry" />
        </mxCell>
        <mxCell id="OE3xZeeuRfqUpTDXlx89-42" value="saa" style="text;html=1;strokeColor=none;fillColor=none;align=center;verticalAlign=middle;whiteSpace=wrap;rounded=0;sketch=0;fontColor=#393C56;shadow=1;" vertex="1" parent="1">
          <mxGeometry x="-40" y="203" width="60" height="30" as="geometry" />
        </mxCell>
        <mxCell id="OE3xZeeuRfqUpTDXlx89-43" value="" style="ellipse;whiteSpace=wrap;html=1;rounded=0;sketch=0;fontColor=#393C56;strokeColor=#E07A5F;fillColor=#F2CC8F;shadow=1;" vertex="1" parent="1">
          <mxGeometry x="658" y="268" width="120" height="80" as="geometry" />
        </mxCell>
        <mxCell id="OE3xZeeuRfqUpTDXlx89-51" value="" style="shape=table;startSize=0;container=1;collapsible=0;childLayout=tableLayout;rounded=0;sketch=0;fontColor=#393C56;strokeColor=#E07A5F;fillColor=#F2CC8F;shadow=1;" vertex="1" parent="1">
          <mxGeometry x="353" y="87" width="60" height="40" as="geometry" />
        </mxCell>
        <mxCell id="OE3xZeeuRfqUpTDXlx89-52" value="" style="shape=partialRectangle;collapsible=0;dropTarget=0;pointerEvents=0;fillColor=none;top=0;left=0;bottom=0;right=0;points=[[0,0.5],[1,0.5]];portConstraint=eastwest;rounded=0;sketch=0;fontColor=#393C56;strokeColor=#E07A5F;shadow=1;" vertex="1" parent="OE3xZeeuRfqUpTDXlx89-51">
          <mxGeometry width="60" height="40" as="geometry" />
        </mxCell>
        <mxCell id="OE3xZeeuRfqUpTDXlx89-53" value="" style="shape=partialRectangle;html=1;whiteSpace=wrap;connectable=0;overflow=hidden;fillColor=none;top=0;left=0;bottom=0;right=0;pointerEvents=1;rounded=0;sketch=0;fontColor=#393C56;strokeColor=#E07A5F;shadow=1;" vertex="1" parent="OE3xZeeuRfqUpTDXlx89-52">
          <mxGeometry width="60" height="40" as="geometry">
            <mxRectangle width="60" height="40" as="alternateBounds" />
          </mxGeometry>
        </mxCell>
        <mxCell id="OE3xZeeuRfqUpTDXlx89-45" value="" style="endArrow=classic;html=1;rounded=1;sketch=0;fontColor=#393C56;strokeColor=#E07A5F;curved=0;entryX=0;entryY=0;entryDx=20;entryDy=70;entryPerimeter=0;labelBackgroundColor=#F4F1DE;" edge="1" parent="1" target="OE3xZeeuRfqUpTDXlx89-33">
          <mxGeometry relative="1" as="geometry">
            <mxPoint x="278" y="1063" as="sourcePoint" />
            <mxPoint x="438" y="1063" as="targetPoint" />
          </mxGeometry>
        </mxCell>
        <mxCell id="OE3xZeeuRfqUpTDXlx89-46" value="好的" style="edgeLabel;resizable=0;html=1;align=center;verticalAlign=middle;rounded=0;sketch=0;fontColor=#393C56;strokeColor=#E07A5F;fillColor=#F2CC8F;labelBackgroundColor=#F4F1DE;" connectable="0" vertex="1" parent="OE3xZeeuRfqUpTDXlx89-45">
          <mxGeometry relative="1" as="geometry">
            <mxPoint x="10" y="12" as="offset" />
          </mxGeometry>
        </mxCell>
        <mxCell id="OE3xZeeuRfqUpTDXlx89-47" value="Source" style="edgeLabel;resizable=0;html=1;align=left;verticalAlign=bottom;rounded=0;sketch=0;fontColor=#393C56;strokeColor=#E07A5F;fillColor=#F2CC8F;labelBackgroundColor=#F4F1DE;" connectable="0" vertex="1" parent="OE3xZeeuRfqUpTDXlx89-45">
          <mxGeometry x="-1" relative="1" as="geometry" />
        </mxCell>
        <mxCell id="OE3xZeeuRfqUpTDXlx89-48" value="Target" style="edgeLabel;resizable=0;html=1;align=right;verticalAlign=bottom;rounded=0;sketch=0;fontColor=#393C56;strokeColor=#E07A5F;fillColor=#F2CC8F;labelBackgroundColor=#F4F1DE;" connectable="0" vertex="1" parent="OE3xZeeuRfqUpTDXlx89-45">
          <mxGeometry x="1" relative="1" as="geometry" />
        </mxCell>
        <mxCell id="OE3xZeeuRfqUpTDXlx89-49" value="" style="html=1;whiteSpace=wrap;shape=isoCube2;backgroundOutline=1;isoAngle=15;rounded=0;sketch=0;fontColor=#393C56;strokeColor=#E07A5F;fillColor=#F2CC8F;" vertex="1" parent="1">
          <mxGeometry x="155" y="1332" width="90" height="100" as="geometry" />
        </mxCell>
        <mxCell id="OE3xZeeuRfqUpTDXlx89-50" value="" style="shape=image;html=1;verticalLabelPosition=bottom;verticalAlign=top;imageAspect=0;image=img/clipart/Gear_128x128.png;rounded=0;sketch=0;fontColor=#393C56;strokeColor=#E07A5F;fillColor=#F2CC8F;" vertex="1" parent="1">
          <mxGeometry x="330" y="1252" width="84" height="75" as="geometry" />
        </mxCell>
        <mxCell id="OE3xZeeuRfqUpTDXlx89-55" value="" style="ellipse;whiteSpace=wrap;html=1;rounded=0;shadow=1;sketch=0;fontColor=#393C56;strokeColor=#E07A5F;fillColor=#F2CC8F;" vertex="1" parent="1">
          <mxGeometry x="-251" y="143" width="80" height="80" as="geometry" />
        </mxCell>
      </root>
    </mxGraphModel>
  </diagram>
</mxfile>
